# xmcd
#
# Track frame offsets:
#	150
#	15746
#	27899
#	40431
#	55717
#	76842
#	91115
#	102669
#	116208
#	130838
#	144094
#	157149
#	175145
#	189506
#	202935
#	215954
#	236130
#	246877
#	260390
#	273319
#	294540
#
# Disc length: 4110 seconds
#
# Revision: 0
# Processed by: cddbd v1.5.2PL0 Copyright (c) Steve Scherf et al.
# Submitted via: EasyCDDAExtractor 12.1.0.1
#
DISCID=30100c15
DTITLE=Frank Sinatra - Grandes Exitos
DYEAR=2010
DGENRE=Ballad
TTITLE0=New York
TTITLE1=My Way
TTITLE2=Something Stupid
TTITLE3=Moon River
TTITLE4=What Now My Love
TTITLE5=I Get A Kick My Love
TTITLE6=Yesterday
TTITLE7=The Girl From Opanema
TTITLE8=Stragers In Te Night
TTITLE9=That's Life
TTITLE10=Sumer Wind
TTITLE11=For Once In My Life
TTITLE12=Mrs Robinson
TTITLE13=Old Man Rivers
TTITLE14=Bad Leroy Brown
TTITLE15=The Laydi Is Tramp
TTITLE16=Luck Be A Lady
TTITLE17=The Way You Look Tonight
TTITLE18=My Kind Of Town
TTITLE19=The Best Is Yet To Come
TTITLE20=Nancy
EXTD=
EXTT0=
EXTT1=
EXTT2=
EXTT3=
EXTT4=
EXTT5=
EXTT6=
EXTT7=
EXTT8=
EXTT9=
EXTT10=
EXTT11=
EXTT12=
EXTT13=
EXTT14=
EXTT15=
EXTT16=
EXTT17=
EXTT18=
EXTT19=
EXTT20=
PLAYORDER=
